mtllib hammer_sickle.obj.mtl
g Part 1
usemtl 0.615686_0.811765_0.929412_0.000000_0.000000
o mesh0
v 0.0103788 0 -0.0364895 
v 0.0103788 -0.01 -0.0364895 
v 0.00704434 -0.01 -0.0372942 
v 0.00704434 0 -0.0372942 
v 0.00364542 -0.01 -0.0377562 
v 0.00364542 0 -0.0377562 
v 0.000217153 -0.01 -0.0378707 
v 0.000217153 0 -0.0378707 
v -0.00320501 -0.01 -0.0376364 
v -0.00320501 0 -0.0376364 
v -0.0065857 -0.01 -0.0370559 
v -0.0065857 0 -0.0370559 
v -0.00988996 -0.01 -0.036135 
v -0.00988996 0 -0.036135 
v -0.0130836 -0.01 -0.0348834 
v -0.0130836 0 -0.0348834 
v -0.0161337 -0.01 -0.0333139 
v -0.0161337 0 -0.0333139 
v -0.0190086 -0.01 -0.0314428 
v -0.0190086 0 -0.0314428 
vn 0.283723 0 -0.958906 
vn 0.283723 0 -0.958906 
vn 0.184884 0 -0.98276 
vn 0.184884 0 -0.98276 
vn 0.0841331 0 -0.996455 
vn 0.0841331 0 -0.996455 
vn -0.0174875 0 -0.999847 
vn -0.0174875 0 -0.999847 
vn -0.118927 0 -0.992903 
vn -0.118927 0 -0.992903 
vn -0.219138 0 -0.975694 
vn -0.219138 0 -0.975694 
vn -0.317083 0 -0.948398 
vn -0.317083 0 -0.948398 
vn -0.411749 0 -0.911297 
vn -0.411749 0 -0.911297 
vn -0.502159 0 -0.864775 
vn -0.502159 0 -0.864775 
vn -0.587378 0 -0.809313 
vn -0.587378 0 -0.809313 
f 1//1 2//2 3//3 
f 4//4 3//3 5//5 
f 6//6 5//5 7//7 
f 8//8 7//7 9//9 
f 10//10 9//9 11//11 
f 12//12 11//11 13//13 
f 14//14 13//13 15//15 
f 16//16 15//15 17//17 
f 18//18 17//17 19//19 
f 19//19 20//20 18//18 
f 17//17 18//18 16//16 
f 15//15 16//16 14//14 
f 13//13 14//14 12//12 
f 11//11 12//12 10//10 
f 9//9 10//10 8//8 
f 7//7 8//8 6//6 
f 5//5 6//6 4//4 
f 3//3 4//4 1//1 
o mesh1
v 0.0103788 -0.01 -0.0364895 
v 0.0103788 0 -0.0364895 
v 0.024578 0 -0.05441 
v 0.024578 -0.01 -0.05441 
vn -0.783788 0 -0.621029 
vn -0.783788 0 -0.621029 
vn -0.783788 0 -0.621029 
vn -0.783788 0 -0.621029 
f 21//21 22//22 23//23 
f 23//23 24//24 21//21 
o mesh2
v 0.024578 -0.01 -0.05441 
v 0.024578 0 -0.05441 
v 0.0344442 0 -0.0465926 
v 0.0344442 -0.01 -0.0465926 
vn 0.621029 0 -0.783788 
vn 0.621029 0 -0.783788 
vn 0.621029 0 -0.783788 
vn 0.621029 0 -0.783788 
f 25//25 26//26 27//27 
f 27//27 28//28 25//25 
o mesh3
v 0.0344442 -0.01 -0.0465926 
v 0.0344442 0 -0.0465926 
v 0.0217581 0 -0.0305817 
v 0.0217581 -0.01 -0.0305817 
vn 0.783788 0 0.621029 
vn 0.783788 0 0.621029 
vn 0.783788 0 0.621029 
vn 0.783788 0 0.621029 
f 29//29 30//30 31//31 
f 31//31 32//32 29//29 
o mesh4
v 0.0137925 0 0.0269968 
v 0.0137925 -0.01 0.0269968 
v 0.0169494 -0.01 0.0254834 
v 0.0169494 0 0.0254834 
v 0.0199325 -0.01 0.023651 
v 0.0199325 0 0.023651 
v 0.0227096 -0.01 0.0215193 
v 0.0227096 0 0.0215193 
v 0.0252509 -0.01 0.0191112 
v 0.0252509 0 0.0191112 
v 0.0275289 -0.01 0.0164528 
v 0.0275289 0 0.0164528 
v 0.0295191 -0.01 0.0135726 
v 0.0295191 0 0.0135726 
v 0.0312001 -0.01 0.0105017 
v 0.0312001 0 0.0105017 
v 0.0325539 -0.01 0.00727307 
v 0.0325539 0 0.00727307 
v 0.0335657 -0.01 0.00392155 
v 0.0335657 0 0.00392155 
v 0.0342248 -0.01 0.000483207 
v 0.0342248 0 0.000483207 
v 0.0345239 -0.01 -0.00300492 
v 0.0345239 0 -0.00300492 
v 0.03446 -0.01 -0.00650527 
v 0.03446 0 -0.00650527 
v 0.0340337 -0.01 -0.00998015 
v 0.0340337 0 -0.00998015 
v 0.0332495 -0.01 -0.0133921 
v 0.0332495 0 -0.0133921 
v 0.032116 -0.01 -0.0167045 
v 0.032116 0 -0.0167045 
v 0.0306453 -0.01 -0.0198815 
v 0.0306453 0 -0.0198815 
v 0.0288532 -0.01 -0.022889 
v 0.0288532 0 -0.022889 
v 0.0267591 -0.01 -0.0256946 
v 0.0267591 0 -0.0256946 
v 0.0243856 -0.01 -0.0282681 
v 0.0243856 0 -0.0282681 
v 0.0217581 -0.01 -0.0305817 
v 0.0217581 0 -0.0305817 
vn 0.384912 -0 0.922953 
vn 0.384912 -0 0.922953 
vn 0.47849 -0 0.878093 
vn 0.47849 -0 0.878093 
vn 0.566914 -0 0.823777 
vn 0.566914 -0 0.823777 
vn 0.649234 -0 0.760589 
vn 0.649234 -0 0.760589 
vn 0.724561 -0 0.68921 
vn 0.724561 -0 0.68921 
vn 0.792086 -0 0.610409 
vn 0.792086 -0 0.610409 
vn 0.851081 -0 0.525035 
vn 0.851081 -0 0.525035 
vn 0.90091 -0 0.434006 
vn 0.90091 -0 0.434006 
vn 0.941037 -0 0.338304 
vn 0.941037 -0 0.338304 
vn 0.97103 -0 0.238958 
vn 0.97103 -0 0.238958 
vn 0.990566 -0 0.137038 
vn 0.990566 -0 0.137038 
vn 0.999434 -0 0.0336435 
vn 0.999434 -0 0.0336435 
vn 0.997539 0 -0.0701139 
vn 0.997539 0 -0.0701139 
vn 0.984901 0 -0.173116 
vn 0.984901 0 -0.173116 
vn 0.961657 0 -0.274254 
vn 0.961657 0 -0.274254 
vn 0.928057 0 -0.372439 
vn 0.928057 0 -0.372439 
vn 0.884462 0 -0.466612 
vn 0.884462 0 -0.466612 
vn 0.831342 0 -0.555761 
vn 0.831342 0 -0.555761 
vn 0.76927 0 -0.638924 
vn 0.76927 0 -0.638924 
vn 0.698913 0 -0.715207 
vn 0.698913 0 -0.715207 
vn 0.621029 0 -0.783788 
vn 0.621029 0 -0.783788 
f 33//33 34//34 35//35 
f 36//36 35//35 37//37 
f 38//38 37//37 39//39 
f 40//40 39//39 41//41 
f 42//42 41//41 43//43 
f 44//44 43//43 45//45 
f 46//46 45//45 47//47 
f 48//48 47//47 49//49 
f 50//50 49//49 51//51 
f 52//52 51//51 53//53 
f 54//54 53//53 55//55 
f 56//56 55//55 57//57 
f 58//58 57//57 59//59 
f 60//60 59//59 61//61 
f 62//62 61//61 63//63 
f 64//64 63//63 65//65 
f 66//66 65//65 67//67 
f 68//68 67//67 69//69 
f 70//70 69//69 71//71 
f 72//72 71//71 73//73 
f 73//73 74//74 72//72 
f 71//71 72//72 70//70 
f 69//69 70//70 68//68 
f 67//67 68//68 66//66 
f 65//65 66//66 64//64 
f 63//63 64//64 62//62 
f 61//61 62//62 60//60 
f 59//59 60//60 58//58 
f 57//57 58//58 56//56 
f 55//55 56//56 54//54 
f 53//53 54//54 52//52 
f 51//51 52//52 50//50 
f 49//49 50//50 48//48 
f 47//47 48//48 46//46 
f 45//45 46//46 44//44 
f 43//43 44//44 42//42 
f 41//41 42//42 40//40 
f 39//39 40//40 38//38 
f 37//37 38//38 36//36 
f 35//35 36//36 33//33 
o mesh5
v 0.0198679 0 -0.0228981 
v 0.0172693 0 -0.0249165 
v 0.0172693 -0.01 -0.0249165 
v 0.0222325 0 -0.0206101 
v 0.0198679 -0.01 -0.0228981 
v 0.0243352 0 -0.0180792 
v 0.0222325 -0.01 -0.0206101 
v 0.0261512 0 -0.0153354 
v 0.0243352 -0.01 -0.0180792 
v 0.0276591 0 -0.0124109 
v 0.0261512 -0.01 -0.0153354 
v 0.0288413 0 -0.00934018 
v 0.0276591 -0.01 -0.0124109 
v 0.0296836 0 -0.00615946 
v 0.0288413 -0.01 -0.00934018 
v 0.0301763 0 -0.00290619 
v 0.0296836 -0.01 -0.00615946 
v 0.0303136 0 0.000381324 
v 0.0301763 -0.01 -0.00290619 
v 0.0300937 0 0.00366434 
v 0.0303136 -0.01 0.000381324 
v 0.0295193 0 0.00690419 
v 0.0300937 -0.01 0.00366434 
v 0.0285972 0 0.0100627 
v 0.0295193 -0.01 0.00690419 
v 0.0273382 0 0.0131027 
v 0.0285972 -0.01 0.0100627 
v 0.0257572 0 0.0159883 
v 0.0273382 -0.01 0.0131027 
v 0.0238727 0 0.0186856 
v 0.0257572 -0.01 0.0159883 
v 0.021707 0 0.0211628 
v 0.0238727 -0.01 0.0186856 
v 0.0192856 0 0.0233907 
v 0.021707 -0.01 0.0211628 
v 0.016637 0 0.025343 
v 0.0192856 -0.01 0.0233907 
v 0.0137925 0 0.0269968 
v 0.016637 -0.01 0.025343 
v 0.0137925 -0.01 0.0269968 
vn -0.655361 -0 0.755316 
vn -0.569643 -0 0.821892 
vn -0.569643 -0 0.821892 
vn -0.733359 -0 0.679841 
vn -0.655361 -0 0.755316 
vn -0.802718 -0 0.596359 
vn -0.733359 -0 0.679841 
vn -0.862621 -0 0.505851 
vn -0.802718 -0 0.596359 
vn -0.912362 -0 0.409384 
vn -0.862621 -0 0.505851 
vn -0.951356 -0 0.308094 
vn -0.912362 -0 0.409384 
vn -0.979142 -0 0.203175 
vn -0.951356 -0 0.308094 
vn -0.995395 -0 0.0958632 
vn -0.979142 -0 0.203175 
vn -0.999921 0 -0.0125783 
vn -0.995395 -0 0.0958632 
vn -0.992668 0 -0.120872 
vn -0.999921 0 -0.0125783 
vn -0.973722 0 -0.227741 
vn -0.992668 0 -0.120872 
vn -0.943305 0 -0.331928 
vn -0.973722 0 -0.227741 
vn -0.901776 0 -0.432204 
vn -0.943305 0 -0.331928 
vn -0.849624 0 -0.52739 
vn -0.901776 0 -0.432204 
vn -0.787463 0 -0.616362 
vn -0.849624 0 -0.52739 
vn -0.716026 0 -0.698074 
vn -0.787463 0 -0.616362 
vn -0.636154 0 -0.771562 
vn -0.716026 0 -0.698074 
vn -0.548788 0 -0.835961 
vn -0.636154 0 -0.771562 
vn -0.454958 0 -0.890513 
vn -0.548788 0 -0.835961 
vn -0.454958 0 -0.890513 
f 75//75 76//76 77//77 
f 78//78 75//75 79//79 
f 80//80 78//78 81//81 
f 82//82 80//80 83//83 
f 84//84 82//82 85//85 
f 86//86 84//84 87//87 
f 88//88 86//86 89//89 
f 90//90 88//88 91//91 
f 92//92 90//90 93//93 
f 94//94 92//92 95//95 
f 96//96 94//94 97//97 
f 98//98 96//96 99//99 
f 100//100 98//98 101//101 
f 102//102 100//100 103//103 
f 104//104 102//102 105//105 
f 106//106 104//104 107//107 
f 108//108 106//106 109//109 
f 110//110 108//108 111//111 
f 112//112 110//110 113//113 
f 113//113 114//114 112//112 
f 111//111 113//113 110//110 
f 109//109 111//111 108//108 
f 107//107 109//109 106//106 
f 105//105 107//107 104//104 
f 103//103 105//105 102//102 
f 101//101 103//103 100//100 
f 99//99 101//101 98//98 
f 97//97 99//99 96//96 
f 95//95 97//97 94//94 
f 93//93 95//95 92//92 
f 91//91 93//93 90//90 
f 89//89 91//91 88//88 
f 87//87 89//89 86//86 
f 85//85 87//87 84//84 
f 83//83 85//85 82//82 
f 81//81 83//83 80//80 
f 79//79 81//81 78//78 
f 77//77 79//79 75//75 
o mesh6
v 0.0172693 -0.01 -0.0249165 
v 0.0172693 0 -0.0249165 
v 0.00250917 0 -0.00628804 
v 0.00250917 -0.01 -0.00628804 
vn 0.783788 0 0.621029 
vn 0.783788 0 0.621029 
vn 0.783788 0 0.621029 
vn 0.783788 0 0.621029 
f 115//115 116//116 117//117 
f 117//117 118//118 115//115 
o mesh7
v 0.00250917 -0.01 -0.00628804 
v 0.00250917 0 -0.00628804 
v -0.00344982 0 0.00149408 
v -0.00344982 -0.01 0.00149408 
vn 0.793966 0 0.607962 
vn 0.793966 0 0.607962 
vn 0.793966 0 0.607962 
vn 0.793966 0 0.607962 
f 119//119 120//120 121//121 
f 121//121 122//122 119//119 
o mesh8
v -0.00344982 -0.01 0.00149408 
v -0.00344982 0 0.00149408 
v 0.00898439 0 0.0104982 
v 0.00898439 -0.01 0.0104982 
vn 0.58651 0 -0.809942 
vn 0.58651 0 -0.809942 
vn 0.58651 0 -0.809942 
vn 0.58651 0 -0.809942 
f 123//123 124//124 125//125 
f 125//125 126//126 123//123 
o mesh9
v 0.00898439 -0.01 0.0104982 
v 0.00898439 0 0.0104982 
v 0.00641179 0 0.0132137 
v 0.00641179 -0.01 0.0132137 
vn 0.725953 0 0.687745 
vn 0.725953 0 0.687745 
vn 0.725953 0 0.687745 
vn 0.725953 0 0.687745 
f 127//127 128//128 129//129 
f 129//129 130//130 127//127 
o mesh10
v 0.00641179 -0.01 0.0132137 
v 0.00641179 0 0.0132137 
v -0.00830845 0 0.0084938 
v -0.00830845 -0.01 0.0084938 
vn -0.305327 0 0.952247 
vn -0.305327 0 0.952247 
vn -0.305327 0 0.952247 
vn -0.305327 0 0.952247 
f 131//131 132//132 133//133 
f 133//133 134//134 131//131 
o mesh11
v -0.00830845 -0.01 0.0084938 
v -0.00830845 0 0.0084938 
v -0.0243034 0 -0.00417968 
v -0.0243034 -0.01 -0.00417968 
vn -0.621029 0 0.783788 
vn -0.621029 0 0.783788 
vn -0.621029 0 0.783788 
vn -0.621029 0 0.783788 
f 135//135 136//136 137//137 
f 137//137 138//138 135//135 
o mesh12
v -0.0243034 -0.01 -0.00417968 
v -0.0243034 0 -0.00417968 
v -0.0190588 0 -0.0107987 
v -0.0190588 -0.01 -0.0107987 
vn -0.783788 0 -0.621029 
vn -0.783788 0 -0.621029 
vn -0.783788 0 -0.621029 
vn -0.783788 0 -0.621029 
f 139//139 140//140 141//141 
f 141//141 142//142 139//139 
o mesh13
v -0.0190588 -0.01 -0.0107987 
v -0.0190588 0 -0.0107987 
v -0.0134797 0 -0.00637817 
v -0.0134797 -0.01 -0.00637817 
vn 0.621029 0 -0.783788 
vn 0.621029 0 -0.783788 
vn 0.621029 0 -0.783788 
vn 0.621029 0 -0.783788 
f 143//143 144//144 145//145 
f 145//145 146//146 143//143 
o mesh14
v -0.0134797 0 -0.00637817 
v 0.00513952 0 -0.0298771 
v 0.00513952 -0.01 -0.0298771 
v -0.0134797 -0.01 -0.00637817 
vn -0.783788 0 -0.621029 
vn -0.783788 0 -0.621029 
vn -0.783788 0 -0.621029 
vn -0.783788 0 -0.621029 
f 147//147 148//148 149//149 
f 149//149 150//150 147//147 
o mesh15
v -0.0223018 0 -0.0205351 
v -0.0242349 0 -0.0182134 
v -0.0242349 -0.01 -0.0182134 
v -0.0201471 0 -0.0226529 
v -0.0223018 -0.01 -0.0205351 
v -0.0177924 0 -0.0245457 
v -0.0201471 -0.01 -0.0226529 
v -0.015261 0 -0.0261947 
v -0.0177924 -0.01 -0.0245457 
v -0.012578 0 -0.0275836 
v -0.015261 -0.01 -0.0261947 
v -0.00977006 0 -0.0286985 
v -0.012578 -0.01 -0.0275836 
v -0.00686512 0 -0.0295284 
v -0.00977006 -0.01 -0.0286985 
v -0.00389201 0 -0.0300651 
v -0.00686512 -0.01 -0.0295284 
v -0.000880243 0 -0.0303032 
v -0.00389201 -0.01 -0.0300651 
v 0.00214027 0 -0.0302403 
v -0.000880243 -0.01 -0.0303032 
v 0.00513952 0 -0.0298771 
v 0.00214027 -0.01 -0.0302403 
v 0.00513952 -0.01 -0.0298771 
vn 0.735644 -0 0.677369 
vn 0.799411 -0 0.600785 
vn 0.799411 -0 0.600785 
vn 0.664571 -0 0.747225 
vn 0.735644 -0 0.677369 
vn 0.586898 -0 0.809661 
vn 0.664571 -0 0.747225 
vn 0.503397 -0 0.864055 
vn 0.586898 -0 0.809661 
vn 0.414896 -0 0.909869 
vn 0.503397 -0 0.864055 
vn 0.322274 -0 0.946646 
vn 0.414896 -0 0.909869 
vn 0.226452 -0 0.974022 
vn 0.322274 -0 0.946646 
vn 0.128382 -0 0.991725 
vn 0.226452 -0 0.974022 
vn 0.0290356 -0 0.999578 
vn 0.128382 -0 0.991725 
vn -0.0705986 -0 0.997505 
vn 0.0290356 -0 0.999578 
vn -0.169532 -0 0.985525 
vn -0.0705986 -0 0.997505 
vn -0.169532 -0 0.985525 
f 151//151 152//152 153//153 
f 154//154 151//151 155//155 
f 156//156 154//154 157//157 
f 158//158 156//156 159//159 
f 160//160 158//158 161//161 
f 162//162 160//160 163//163 
f 164//164 162//162 165//165 
f 166//166 164//164 167//167 
f 168//168 166//166 169//169 
f 170//170 168//168 171//171 
f 172//172 170//170 173//173 
f 173//173 174//174 172//172 
f 171//171 173//173 170//170 
f 169//169 171//171 168//168 
f 167//167 169//169 166//166 
f 165//165 167//167 164//164 
f 163//163 165//165 162//162 
f 161//161 163//163 160//160 
f 159//159 161//161 158//158 
f 157//157 159//159 156//156 
f 155//155 157//157 154//154 
f 153//153 155//155 151//151 
o mesh16
v 0.0345239 -0.01 -0.00300492 
v 0.0342248 -0.01 0.000483207 
v 0.0303136 -0.01 0.000381324 
v 0.0335657 -0.01 0.00392155 
v 0.0217581 -0.01 -0.0305817 
v 0.0243856 -0.01 -0.0282681 
v 0.0198679 -0.01 -0.0228981 
v 0.0267591 -0.01 -0.0256946 
v 0.0300937 -0.01 0.00366434 
v 0.0325539 -0.01 0.00727307 
v 0.0285972 -0.01 0.0100627 
v 0.0312001 -0.01 0.0105017 
v 0.0295191 -0.01 0.0135726 
v 0.0273382 -0.01 0.0131027 
v 0.0275289 -0.01 0.0164528 
v 0.0222325 -0.01 -0.0206101 
v 0.0288532 -0.01 -0.022889 
v 0.03446 -0.01 -0.00650527 
v 0.0301763 -0.01 -0.00290619 
v 0.0295193 -0.01 0.00690419 
v 0.0257572 -0.01 0.0159883 
v 0.0238727 -0.01 0.0186856 
v 0.0252509 -0.01 0.0191112 
v 0.0227096 -0.01 0.0215193 
v 0.021707 -0.01 0.0211628 
v 0.0199325 -0.01 0.023651 
v 0.0243352 -0.01 -0.0180792 
v 0.0306453 -0.01 -0.0198815 
v 0.032116 -0.01 -0.0167045 
v 0.0332495 -0.01 -0.0133921 
v 0.0276591 -0.01 -0.0124109 
v 0.0192856 -0.01 0.0233907 
v -0.0190086 -0.01 -0.0314428 
v -0.015261 -0.01 -0.0261947 
v -0.0177924 -0.01 -0.0245457 
v -0.0161337 -0.01 -0.0333139 
v -0.012578 -0.01 -0.0275836 
v -0.0130836 -0.01 -0.0348834 
v -0.00977006 -0.01 -0.0286985 
v -0.00988996 -0.01 -0.036135 
v -0.00686512 -0.01 -0.0295284 
v 0.0261512 -0.01 -0.0153354 
v 0.0340337 -0.01 -0.00998015 
v 0.0288413 -0.01 -0.00934018 
v 0.0296836 -0.01 -0.00615946 
v 0.0169494 -0.01 0.0254834 
v -0.0065857 -0.01 -0.0370559 
v -0.00389201 -0.01 -0.0300651 
v 0.0137925 -0.01 0.0269968 
v 0.016637 -0.01 0.025343 
v 0.00364542 -0.01 -0.0377562 
v 0.00704434 -0.01 -0.0372942 
v 0.00513952 -0.01 -0.0298771 
v -0.00320501 -0.01 -0.0376364 
v 0.000217153 -0.01 -0.0378707 
v -0.000880243 -0.01 -0.0303032 
v 0.00214027 -0.01 -0.0302403 
v 0.0172693 -0.01 -0.0249165 
v 0.0103788 -0.01 -0.0364895 
v -0.0418369 -0.01 -0.0411725 
v -0.0321574 -0.01 -0.0485935 
v -0.0134797 -0.01 -0.00637817 
v 0.00250917 -0.01 -0.00628804 
v -0.0243034 -0.01 -0.00417968 
v -0.0190588 -0.01 -0.0107987 
v 0.0344442 -0.01 -0.0465926 
v -0.0201471 -0.01 -0.0226529 
v -0.00344982 -0.01 0.00149408 
v 0.00898439 -0.01 0.0104982 
v 0.00641179 -0.01 0.0132137 
v -0.0223018 -0.01 -0.0205351 
v -0.00830845 -0.01 0.0084938 
v -0.0242349 -0.01 -0.0182134 
v 0.024578 -0.01 -0.05441 
vn 0 -1 0 
vn 0 -1 0 
vn 0 -1 0 
vn 0 -1 0 
vn 0 -1 0 
vn 0 -1 0 
vn 0 -1 0 
vn 0 -1 0 
vn 0 -1 0 
vn 0 -1 0 
vn 0 -1 0 
vn 0 -1 0 
vn 0 -1 0 
vn 0 -1 0 
vn 0 -1 0 
vn 0 -1 0 
vn 0 -1 0 
vn 0 -1 0 
vn 0 -1 0 
vn 0 -1 0 
vn 0 -1 0 
vn 0 -1 0 
vn 0 -1 0 
vn 0 -1 0 
vn 0 -1 0 
vn 0 -1 0 
vn 0 -1 0 
vn 0 -1 0 
vn 0 -1 0 
vn 0 -1 0 
vn 0 -1 0 
vn 0 -1 0 
vn 0 -1 0 
vn 0 -1 0 
vn 0 -1 0 
vn 0 -1 0 
vn 0 -1 0 
vn 0 -1 0 
vn 0 -1 0 
vn 0 -1 0 
vn 0 -1 0 
vn 0 -1 0 
vn 0 -1 0 
vn 0 -1 0 
vn 0 -1 0 
vn 0 -1 0 
vn 0 -1 0 
vn 0 -1 0 
vn 0 -1 0 
vn 0 -1 0 
vn 0 -1 0 
vn 0 -1 0 
vn 0 -1 0 
vn 0 -1 0 
vn 0 -1 0 
vn 0 -1 0 
vn 0 -1 0 
vn 0 -1 0 
vn 0 -1 0 
vn 0 -1 0 
vn 0 -1 0 
vn 0 -1 0 
vn 0 -1 0 
vn 0 -1 0 
vn 0 -1 0 
vn 0 -1 0 
vn 0 -1 0 
vn 0 -1 0 
vn 0 -1 0 
vn 0 -1 0 
vn 0 -1 0 
vn 0 -1 0 
vn 0 -1 0 
vn 0 -1 0 
f 175//175 176//176 177//177 
f 177//177 176//176 178//178 
f 179//179 180//180 181//181 
f 181//181 180//180 182//182 
f 178//178 183//183 177//177 
f 183//183 178//178 184//184 
f 185//185 186//186 187//187 
f 188//188 187//187 189//189 
f 182//182 190//190 181//181 
f 190//190 182//182 191//191 
f 192//192 175//175 193//193 
f 184//184 194//194 183//183 
f 194//194 184//184 186//186 
f 189//189 195//195 188//188 
f 196//196 197//197 198//198 
f 199//199 198//198 200//200 
f 191//191 201//201 190//190 
f 201//201 191//191 202//202 
f 203//203 204//204 205//205 
f 177//177 193//193 175//175 
f 187//187 188//188 185//185 
f 195//195 189//189 197//197 
f 200//200 206//206 199//199 
f 207//207 208//208 209//209 
f 210//210 211//211 208//208 
f 212//212 213//213 211//211 
f 214//214 215//215 213//213 
f 202//202 216//216 201//201 
f 216//216 202//202 203//203 
f 204//204 217//217 218//218 
f 217//217 192//192 219//219 
f 186//186 185//185 194//194 
f 198//198 199//199 196//196 
f 206//206 200//200 220//220 
f 208//208 207//207 210//210 
f 213//213 212//212 214//214 
f 221//221 222//222 215//215 
f 205//205 216//216 203//203 
f 219//219 218//218 217//217 
f 197//197 196//196 195//195 
f 220//220 223//223 224//224 
f 211//211 210//210 212//212 
f 215//215 214//214 221//221 
f 225//225 226//226 227//227 
f 218//218 205//205 204//204 
f 220//220 224//224 206//206 
f 221//221 228//228 222//222 
f 228//228 229//229 230//230 
f 229//229 225//225 231//231 
f 227//227 231//231 225//225 
f 227//227 179//179 232//232 
f 193//193 219//219 192//192 
f 230//230 222//222 228//228 
f 226//226 233//233 227//227 
f 234//234 235//235 207//207 
f 181//181 232//232 179//179 
f 236//236 232//232 237//237 
f 238//238 239//239 236//236 
f 240//240 227//227 233//233 
f 231//231 230//230 229//229 
f 207//207 241//241 234//234 
f 242//242 243//243 244//244 
f 227//227 240//240 179//179 
f 236//236 242//242 238//238 
f 209//209 241//241 207//207 
f 241//241 245//245 234//234 
f 244//244 246//246 242//242 
f 237//237 242//242 236//236 
f 245//245 247//247 234//234 
f 232//232 236//236 227//227 
f 246//246 238//238 242//242 
f 233//233 248//248 240//240 
o mesh17
v 0.021707 0 0.0211628 
v 0.0192856 0 0.0233907 
v 0.0199325 0 0.023651 
v 0.0238727 0 0.0186856 
v 0.0227096 0 0.0215193 
v 0.016637 0 0.025343 
v 0.0169494 0 0.0254834 
v 0.0252509 0 0.0191112 
v 0.0257572 0 0.0159883 
v 0.0273382 0 0.0131027 
v 0.0275289 0 0.0164528 
v 0.0285972 0 0.0100627 
v 0.0295191 0 0.0135726 
v 0.0300937 0 0.00366434 
v 0.0295193 0 0.00690419 
v 0.0325539 0 0.00727307 
v 0.0303136 0 0.000381324 
v 0.0335657 0 0.00392155 
v 0.0198679 0 -0.0228981 
v 0.0222325 0 -0.0206101 
v 0.0267591 0 -0.0256946 
v 0.0217581 0 -0.0305817 
v 0.0172693 0 -0.0249165 
v 0.0312001 0 0.0105017 
v 0.0342248 0 0.000483207 
v 0.0345239 0 -0.00300492 
v 0.0301763 0 -0.00290619 
v 0.0340337 0 -0.00998015 
v 0.0288413 0 -0.00934018 
v 0.0296836 0 -0.00615946 
v 0.0332495 0 -0.0133921 
v 0.0276591 0 -0.0124109 
v 0.032116 0 -0.0167045 
v 0.0261512 0 -0.0153354 
v 0.0243352 0 -0.0180792 
v 0.0288532 0 -0.022889 
v 0.0243856 0 -0.0282681 
v -0.0161337 0 -0.0333139 
v -0.0190086 0 -0.0314428 
v -0.015261 0 -0.0261947 
v 0.03446 0 -0.00650527 
v 0.0306453 0 -0.0198815 
v 0.00513952 0 -0.0298771 
v -0.0134797 0 -0.00637817 
v 0.00250917 0 -0.00628804 
v -0.0065857 0 -0.0370559 
v -0.00988996 0 -0.036135 
v -0.00686512 0 -0.0295284 
v -0.0130836 0 -0.0348834 
v -0.00977006 0 -0.0286985 
v -0.012578 0 -0.0275836 
v -0.0177924 0 -0.0245457 
v 0.00364542 0 -0.0377562 
v 0.00214027 0 -0.0302403 
v -0.00320501 0 -0.0376364 
v -0.00389201 0 -0.0300651 
v -0.000880243 0 -0.0303032 
v -0.0201471 0 -0.0226529 
v 0.0103788 0 -0.0364895 
v 0.00704434 0 -0.0372942 
v 0.000217153 0 -0.0378707 
v -0.00344982 0 0.00149408 
v -0.0418369 0 -0.0411725 
v -0.0243034 0 -0.00417968 
v 0.0344442 0 -0.0465926 
v -0.00830845 0 0.0084938 
v 0.00641179 0 0.0132137 
v -0.0223018 0 -0.0205351 
v 0.024578 0 -0.05441 
v 0.0137925 0 0.0269968 
v -0.0242349 0 -0.0182134 
v 0.00898439 0 0.0104982 
v -0.0321574 0 -0.0485935 
v -0.0190588 0 -0.0107987 
vn -0 1 -0 
vn -0 1 -0 
vn -0 1 -0 
vn -0 1 -0 
vn -0 1 -0 
vn -0 1 -0 
vn -0 1 -0 
vn -0 1 -0 
vn -0 1 -0 
vn -0 1 -0 
vn -0 1 -0 
vn -0 1 -0 
vn -0 1 -0 
vn -0 1 -0 
vn -0 1 -0 
vn -0 1 -0 
vn -0 1 -0 
vn -0 1 -0 
vn -0 1 -0 
vn -0 1 -0 
vn -0 1 -0 
vn -0 1 -0 
vn -0 1 -0 
vn -0 1 -0 
vn -0 1 -0 
vn -0 1 -0 
vn -0 1 -0 
vn -0 1 -0 
vn -0 1 -0 
vn -0 1 -0 
vn -0 1 -0 
vn -0 1 -0 
vn -0 1 -0 
vn -0 1 -0 
vn -0 1 -0 
vn -0 1 -0 
vn -0 1 -0 
vn -0 1 -0 
vn -0 1 -0 
vn -0 1 -0 
vn -0 1 -0 
vn -0 1 -0 
vn -0 1 -0 
vn -0 1 -0 
vn -0 1 -0 
vn -0 1 -0 
vn -0 1 -0 
vn -0 1 -0 
vn -0 1 -0 
vn -0 1 -0 
vn -0 1 -0 
vn -0 1 -0 
vn -0 1 -0 
vn -0 1 -0 
vn -0 1 -0 
vn -0 1 -0 
vn -0 1 -0 
vn -0 1 -0 
vn -0 1 -0 
vn -0 1 -0 
vn -0 1 -0 
vn -0 1 -0 
vn -0 1 -0 
vn -0 1 -0 
vn -0 1 -0 
vn -0 1 -0 
vn -0 1 -0 
vn -0 1 -0 
vn -0 1 -0 
vn -0 1 -0 
vn -0 1 -0 
vn -0 1 -0 
vn -0 1 -0 
vn -0 1 -0 
f 249//249 250//250 251//251 
f 252//252 249//249 253//253 
f 250//250 254//254 255//255 
f 253//253 256//256 252//252 
f 257//257 252//252 256//256 
f 258//258 257//257 259//259 
f 260//260 258//258 261//261 
f 262//262 263//263 264//264 
f 265//265 262//262 266//266 
f 267//267 268//268 269//269 
f 270//270 271//271 267//267 
f 255//255 251//251 250//250 
f 256//256 259//259 257//257 
f 261//261 272//272 260//260 
f 263//263 260//260 272//272 
f 266//266 273//273 265//265 
f 274//274 275//275 265//265 
f 276//276 277//277 278//278 
f 279//279 280//280 277//277 
f 281//281 282//282 280//280 
f 268//268 283//283 284//284 
f 267//267 285//285 270//270 
f 286//286 287//287 288//288 
f 251//251 253//253 249//249 
f 272//272 264//264 263//263 
f 265//265 273//273 274//274 
f 289//289 278//278 275//275 
f 277//277 276//276 279//279 
f 280//280 279//279 281//281 
f 283//283 282//282 290//290 
f 269//269 285//285 267//267 
f 291//291 292//292 293//293 
f 294//294 295//295 296//296 
f 295//295 297//297 298//298 
f 297//297 286//286 299//299 
f 287//287 300//300 288//288 
f 259//259 261//261 258//258 
f 275//275 274//274 289//289 
f 281//281 290//290 282//282 
f 284//284 269//269 268//268 
f 293//293 271//271 291//291 
f 301//301 302//302 291//291 
f 303//303 304//304 305//305 
f 304//304 303//303 294//294 
f 299//299 298//298 297//297 
f 287//287 306//306 300//300 
f 264//264 266//266 262//262 
f 290//290 284//284 283//283 
f 271//271 270//270 291//291 
f 291//291 307//307 308//308 
f 309//309 305//305 302//302 
f 296//296 304//304 294//294 
f 288//288 299//299 286//286 
f 278//278 289//289 276//276 
f 292//292 310//310 293//293 
f 311//311 306//306 287//287 
f 302//302 301//301 309//309 
f 298//298 296//296 295//295 
f 312//312 310//310 292//292 
f 270//270 313//313 291//291 
f 310//310 314//314 315//315 
f 311//311 316//316 306//306 
f 305//305 309//309 303//303 
f 313//313 317//317 307//307 
f 254//254 318//318 255//255 
f 310//310 312//312 314//314 
f 311//311 319//319 316//316 
f 307//307 291//291 313//313 
f 315//315 320//320 310//310 
f 291//291 308//308 301//301 
f 287//287 321//321 311//311 
f 292//292 322//322 312//312 
o mesh18
v -0.0242349 -0.01 -0.0182134 
v -0.0242349 0 -0.0182134 
v -0.0418369 0 -0.0411725 
v -0.0418369 -0.01 -0.0411725 
vn -0.793606 0 0.608432 
vn -0.793606 0 0.608432 
vn -0.793606 0 0.608432 
vn -0.793606 0 0.608432 
f 323//323 324//324 325//325 
f 325//325 326//326 323//323 
o mesh19
v -0.0418369 -0.01 -0.0411725 
v -0.0418369 0 -0.0411725 
v -0.0321574 0 -0.0485935 
v -0.0321574 -0.01 -0.0485935 
vn -0.608432 0 -0.793606 
vn -0.608432 0 -0.793606 
vn -0.608432 0 -0.793606 
vn -0.608432 0 -0.793606 
f 327//327 328//328 329//329 
f 329//329 330//330 327//327 
o mesh20
v -0.0321574 -0.01 -0.0485935 
v -0.0321574 0 -0.0485935 
v -0.0190086 0 -0.0314428 
v -0.0190086 -0.01 -0.0314428 
vn 0.793606 0 -0.608432 
vn 0.793606 0 -0.608432 
vn 0.793606 0 -0.608432 
vn 0.793606 0 -0.608432 
f 331//331 332//332 333//333 
f 333//333 334//334 331//331 
